<svg version="1.1" id="Layer_1" xmlns="http://www.w3.org/2000/svg" xmlns:xlink="http://www.w3.org/1999/xlink" x="0px" y="0px"
	 width="100%" viewBox="0 0 468 123" enable-background="new 0 0 468 123" xml:space="preserve">
<path fill="#FFFFFE" opacity="1.000000" stroke="none" 
	d="
M308.000000,124.000000 
	C205.333328,124.000000 103.166664,124.000000 1.000000,124.000000 
	C1.000000,83.000000 1.000000,42.000000 1.000000,1.000000 
	C157.000000,1.000000 313.000000,1.000000 469.000000,1.000000 
	C469.000000,42.000000 469.000000,83.000000 469.000000,124.000000 
	C415.500000,124.000000 362.000000,124.000000 308.000000,124.000000 
M72.090302,60.662838 
	C74.567444,58.195866 77.270638,55.913330 79.468971,53.218880 
	C82.802872,49.132565 86.730667,47.630341 92.066917,47.878620 
	C101.483261,48.316734 110.934669,48.001263 120.867096,48.001263 
	C120.867096,44.308601 120.727699,41.177013 120.905014,38.063457 
	C121.094826,34.730385 119.621742,33.757458 116.451904,33.815151 
	C107.964142,33.969639 99.461182,34.119278 90.985336,33.765614 
	C86.408516,33.574638 83.111870,34.927807 80.112648,38.340111 
	C77.288940,41.552719 73.748795,46.688835 70.757790,46.531490 
	C67.300629,46.349625 63.822773,41.556458 60.863335,38.302170 
	C57.801849,34.935669 54.462166,33.677143 49.922520,33.772575 
	C37.109062,34.041931 24.286240,33.855042 11.467173,33.880531 
	C9.723761,33.883999 7.980719,34.073544 5.998865,34.191086 
	C5.998865,37.637562 6.217084,40.478161 5.945302,43.271080 
	C5.580715,47.017700 6.972051,48.192116 10.719560,48.080585 
	C19.202629,47.828102 27.802565,48.845490 36.165749,47.813282 
	C50.502586,46.043793 61.868961,49.993813 70.106674,62.651028 
	C65.482651,67.110077 60.858627,71.569122 56.117691,76.140907 
	C55.497452,75.715096 54.786098,75.468941 54.465393,74.971115 
	C46.554901,62.691822 34.748459,60.678688 21.482512,62.265408 
	C19.017937,62.560192 16.487885,62.307533 13.988051,62.307533 
	C11.416547,62.307533 8.845042,62.307537 5.988985,62.307537 
	C5.988985,66.376961 6.168681,69.543388 5.940080,72.680054 
	C5.695658,76.033813 7.084968,76.994186 10.287480,76.938889 
	C19.450796,76.780670 28.622362,76.744179 37.781891,76.988907 
	C39.902740,77.045570 42.381432,77.936928 44.009220,79.277481 
	C47.467213,82.125275 50.575413,85.428749 53.597660,88.753883 
	C54.396427,89.632706 55.078796,91.921585 54.593666,92.457260 
	C50.620518,96.844398 46.358414,100.969849 42.229069,105.129456 
	C36.582184,100.107521 32.289173,93.942680 26.505131,91.796799 
	C20.558773,89.590714 13.157123,91.307251 6.438336,91.307251 
	C4.627665,105.698463 4.627665,105.698471 18.398321,105.698486 
	C19.564911,105.698486 20.749367,105.830269 21.894894,105.674934 
	C26.110542,105.103325 29.224888,106.801750 31.959999,109.909668 
	C34.905876,113.257088 38.146740,116.344910 42.467590,120.789207 
	C45.642624,117.031258 48.645046,113.694305 51.395916,110.161491 
	C54.219566,106.535179 57.726707,105.538681 62.264469,105.599937 
	C80.093361,105.840591 97.928101,105.765755 115.758438,105.586151 
	C117.403656,105.569572 120.283539,104.167023 120.444687,103.087708 
	C121.020035,99.234245 120.669769,95.242577 120.669769,90.717834 
	C99.144485,90.717834 78.318405,90.717834 57.492325,90.717834 
	C57.302826,90.324280 57.113327,89.930717 56.923824,89.537163 
	C59.639771,87.082909 62.639713,84.872307 65.004021,82.116386 
	C68.411339,78.144684 72.230995,76.570946 77.592163,76.748856 
	C90.244049,77.168686 102.921852,77.004845 115.582268,76.742889 
	C117.350441,76.706306 120.327583,75.026962 120.586548,73.689964 
	C121.287750,70.069794 120.826851,66.224525 120.826851,62.117950 
	C105.785210,62.117950 91.475090,62.155445 77.165649,62.072807 
	C75.273354,62.061882 73.384590,61.438774 72.090302,60.662838 
M105.688446,4.998119 
	C100.928467,4.217143 97.347832,6.032766 94.466133,9.798157 
	C91.760880,13.332994 88.834076,16.698275 85.896729,20.269501 
	C81.073059,15.461232 77.543182,12.175413 74.296753,8.630044 
	C71.868774,5.978484 69.194748,4.891632 65.541611,4.924255 
	C47.401920,5.086244 29.260000,4.992314 11.118885,5.008430 
	C9.536628,5.009836 7.954498,5.155676 6.435923,5.231261 
	C6.435923,10.100857 6.435923,14.358877 6.435923,19.136507 
	C8.525707,19.136507 10.313567,19.136505 12.101427,19.136505 
	C29.743259,19.136515 47.386024,19.232515 65.026184,19.060747 
	C68.848915,19.023527 71.678253,20.105728 74.226318,22.924246 
	C77.524132,26.572086 81.149612,29.923691 85.256042,34.023926 
	C88.916924,30.081821 92.199478,26.792517 95.187752,23.254637 
	C97.758545,20.211010 100.719101,18.795704 104.757797,19.076202 
	C108.732971,19.352289 112.747116,19.016373 116.735146,19.175352 
	C119.608223,19.289885 120.978134,18.499111 120.921822,15.293751 
	C120.699738,2.653238 122.020729,5.276004 111.130966,5.003289 
	C109.634010,4.965800 108.135315,4.998117 105.688446,4.998119 
M146.767120,87.001289 
	C146.267380,87.001427 145.687927,86.836075 145.282257,87.031494 
	C143.839066,87.726700 142.455063,88.544746 141.048645,89.316277 
	C142.498749,90.210312 143.908401,91.183586 145.420898,91.955353 
	C145.949646,92.225159 146.731674,91.998703 147.398041,91.998703 
	C249.185471,91.998718 350.972900,91.998734 452.760315,91.998558 
	C453.759857,91.998558 454.882202,92.284866 455.729309,91.924797 
	C456.911865,91.422134 457.888794,90.435791 458.953735,89.656433 
	C457.826904,88.772453 456.817383,87.574310 455.538757,87.096939 
	C454.368713,86.660095 452.907806,87.001411 451.575073,87.001411 
	C350.287415,87.001266 248.999771,87.001282 146.767120,87.001289 
M155.481293,61.883781 
	C157.311630,61.884243 159.249222,61.509689 160.941254,61.993668 
	C162.541321,62.451344 164.552246,63.479557 165.221619,64.831566 
	C167.911743,70.265053 169.685150,71.055176 176.257996,68.512741 
	C171.177994,55.545963 166.089005,42.581886 161.022278,29.609119 
	C159.325729,25.265285 155.598450,27.381205 152.802368,27.299297 
	C151.418610,27.258760 149.214890,28.842077 148.687653,30.198227 
	C145.198349,39.173508 142.067291,48.287945 138.811371,57.354115 
	C137.432968,61.192326 136.034622,65.023369 134.518356,69.208122 
	C139.634033,69.936356 143.881287,70.981941 145.188293,64.655602 
	C145.423660,63.516350 147.587708,62.389767 149.059647,61.992840 
	C150.766098,61.532688 152.691452,61.884380 155.481293,61.883781 
M385.554169,31.890213 
	C381.225952,28.502506 376.447357,26.567802 370.614502,27.132284 
	C370.614502,29.694208 370.614502,32.060677 370.614502,34.354168 
	C380.637085,36.184475 384.424133,40.477406 384.170258,49.340893 
	C383.969849,56.339870 379.687805,61.440678 373.354034,62.225368 
	C363.479187,63.448776 359.313324,60.185913 356.199646,48.729942 
	C353.686554,48.729942 351.152954,48.729942 348.619751,48.729942 
	C348.609467,58.460220 352.795319,65.130898 360.746887,68.470627 
	C370.309052,72.486824 382.876007,69.545662 388.524994,62.132927 
	C394.282684,54.577549 394.465515,39.747444 385.554169,31.890213 
M305.282257,41.192562 
	C303.091431,38.052643 300.554810,35.093792 298.792938,31.729246 
	C296.314117,26.995594 292.733673,26.396391 287.573608,27.631704 
	C288.639557,29.392826 289.403473,30.802231 290.303467,32.118607 
	C297.819519,43.111931 305.588440,53.941776 312.782196,65.141373 
	C315.671509,69.639542 318.971893,70.494171 323.636658,69.190239 
	C323.636658,55.170422 323.636658,41.295135 323.636658,27.473042 
	C321.009491,27.473042 318.768402,27.473042 315.900024,27.473042 
	C315.900024,36.941059 315.900024,46.071388 315.900024,56.369766 
	C311.988098,50.767353 308.848358,46.270836 305.282257,41.192562 
M417.940186,55.607128 
	C418.873657,56.984428 420.046844,58.257141 420.700928,59.756336 
	C424.393829,68.220947 430.665497,70.947487 439.749023,69.883125 
	C446.910431,69.043968 454.248749,69.714493 461.442627,69.714493 
	C461.442627,66.514763 461.442627,64.112015 461.442627,61.285110 
	C452.107208,61.285110 443.140747,61.454445 434.190338,61.150703 
	C432.263000,61.085293 429.734070,59.793434 428.606781,58.246849 
	C422.336823,49.644901 416.144501,40.959362 410.483856,31.951609 
	C407.615143,27.386576 404.263824,26.230328 398.780823,27.650139 
	C405.185486,36.989964 411.362762,45.998158 417.940186,55.607128 
M461.795135,31.487932 
	C460.976135,30.036404 460.195984,27.349836 459.332214,27.322693 
	C449.760620,27.021891 440.176025,27.133343 430.562622,27.133343 
	C430.562622,35.825073 430.562622,43.842094 430.562622,51.867508 
	C441.067535,51.867508 451.145172,51.867508 461.498810,51.867508 
	C461.498810,49.521328 461.498810,47.464455 461.498810,44.789490 
	C453.669403,44.789490 446.118774,44.789490 438.468750,44.789490 
	C438.468750,41.302975 438.468750,38.442410 438.468750,35.155575 
	C445.159027,35.155575 451.448730,35.163113 457.738434,35.151119 
	C459.698578,35.147381 461.995728,35.583488 461.795135,31.487932 
M201.466309,69.745003 
	C204.868683,69.745003 208.271072,69.745003 211.617798,69.745003 
	C211.617798,66.502907 211.617798,64.104454 211.617798,61.673256 
	C201.256042,61.673256 191.258835,61.673256 181.312927,61.673256 
	C181.312927,64.505257 181.312927,66.901848 181.312927,69.744598 
	C187.928955,69.744598 194.202118,69.744598 201.466309,69.745003 
M216.927902,63.706909 
	C216.927902,65.503548 216.927902,67.300186 216.927902,69.420639 
	C227.368988,69.420639 237.382431,69.420639 247.655212,69.420639 
	C247.655212,66.704422 247.655212,64.302010 247.655212,61.408085 
	C237.678314,61.408085 227.944214,61.390991 218.210815,61.467289 
	C217.798950,61.470516 217.393875,62.340866 216.927902,63.706909 
M279.079010,47.556499 
	C279.079010,44.824238 279.079010,42.091980 279.079010,39.419346 
	C275.960419,39.419346 273.707672,39.419346 271.302734,39.419346 
	C271.302734,49.547291 271.302734,59.379402 271.302734,69.280060 
	C274.018677,69.280060 276.396088,69.280060 279.079102,69.280060 
	C279.079102,62.111256 279.079102,55.327488 279.079010,47.556499 
M290.230072,41.325035 
	C289.417389,40.449974 288.604736,39.574913 287.563690,38.453922 
	C287.563690,49.133984 287.563690,59.203480 287.563690,69.294510 
	C290.312714,69.294510 292.686676,69.294510 295.579102,69.294510 
	C294.661530,59.704685 298.539764,49.841202 290.230072,41.325035 
M222.402451,56.996799 
	C223.269699,56.487118 224.884583,55.989662 224.893143,55.465942 
	C225.046051,46.115860 225.004181,36.762592 225.004181,27.401806 
	C222.011841,27.401806 219.760391,27.401806 217.277145,27.401806 
	C217.277145,37.321941 217.277145,46.974472 217.277145,57.001457 
	C218.881683,57.001457 220.174988,57.001457 222.402451,56.996799 
M189.168686,53.319012 
	C189.168686,44.761852 189.168686,36.204693 189.168686,27.454632 
	C186.181641,27.454632 183.809814,27.454632 181.374542,27.454632 
	C181.374542,37.438656 181.374542,47.097412 181.374542,58.368732 
	C183.911743,55.015656 188.369049,60.147842 189.168686,53.319012 
M406.950195,65.248260 
	C406.950256,61.427021 406.653961,57.577511 407.015289,53.790745 
	C407.660736,47.026104 402.697296,43.522934 399.348114,38.026279 
	C399.348114,49.226379 399.348114,59.273087 399.348114,69.833893 
	C402.277924,68.576248 406.888947,72.614037 406.950195,65.248260 
M279.132935,30.498907 
	C278.568573,24.077101 274.111176,28.314104 271.231750,27.136803 
	C271.231750,29.586124 271.231750,31.485239 271.231750,33.941780 
	C274.081787,32.846462 277.753143,36.520599 279.132935,30.498907 
z"/>
<path fill="#5E95D4" opacity="1.000000" stroke="none" 
	d="
M71.494194,61.099190 
	C73.384590,61.438774 75.273354,62.061882 77.165649,62.072807 
	C91.475090,62.155445 105.785210,62.117950 120.826851,62.117950 
	C120.826851,66.224525 121.287750,70.069794 120.586548,73.689964 
	C120.327583,75.026962 117.350441,76.706306 115.582268,76.742889 
	C102.921852,77.004845 90.244049,77.168686 77.592163,76.748856 
	C72.230995,76.570946 68.411339,78.144684 65.004021,82.116386 
	C62.639713,84.872307 59.639771,87.082909 56.923824,89.537163 
	C57.113327,89.930717 57.302826,90.324280 57.492325,90.717834 
	C78.318405,90.717834 99.144485,90.717834 120.669769,90.717834 
	C120.669769,95.242577 121.020035,99.234245 120.444687,103.087708 
	C120.283539,104.167023 117.403656,105.569572 115.758438,105.586151 
	C97.928101,105.765755 80.093361,105.840591 62.264469,105.599937 
	C57.726707,105.538681 54.219566,106.535179 51.395916,110.161491 
	C48.645046,113.694305 45.642624,117.031258 42.467590,120.789207 
	C38.146740,116.344910 34.905876,113.257088 31.959999,109.909668 
	C29.224888,106.801750 26.110542,105.103325 21.894894,105.674934 
	C20.749367,105.830269 19.564911,105.698486 18.398321,105.698486 
	C4.627665,105.698471 4.627665,105.698463 6.438336,91.307251 
	C13.157123,91.307251 20.558773,89.590714 26.505131,91.796799 
	C32.289173,93.942680 36.582184,100.107521 42.229069,105.129456 
	C46.358414,100.969849 50.620518,96.844398 54.593666,92.457260 
	C55.078796,91.921585 54.396427,89.632706 53.597660,88.753883 
	C50.575413,85.428749 47.467213,82.125275 44.009220,79.277481 
	C42.381432,77.936928 39.902740,77.045570 37.781891,76.988907 
	C28.622362,76.744179 19.450796,76.780670 10.287480,76.938889 
	C7.084968,76.994186 5.695658,76.033813 5.940080,72.680054 
	C6.168681,69.543388 5.988985,66.376961 5.988985,62.307537 
	C8.845042,62.307537 11.416547,62.307533 13.988051,62.307533 
	C16.487885,62.307533 19.017937,62.560192 21.482512,62.265408 
	C34.748459,60.678688 46.554901,62.691822 54.465393,74.971115 
	C54.786098,75.468941 55.497452,75.715096 56.117691,76.140907 
	C60.858627,71.569122 65.482651,67.110077 70.336716,62.217007 
	C70.875900,61.555054 71.185051,61.327122 71.494194,61.099190 
z"/>
<path fill="#5A93D3" opacity="1.000000" stroke="none" 
	d="
M71.792252,60.881016 
	C71.185051,61.327122 70.875900,61.555054 70.391037,61.867001 
	C61.868961,49.993813 50.502586,46.043793 36.165749,47.813282 
	C27.802565,48.845490 19.202629,47.828102 10.719560,48.080585 
	C6.972051,48.192116 5.580715,47.017700 5.945302,43.271080 
	C6.217084,40.478161 5.998865,37.637562 5.998865,34.191086 
	C7.980719,34.073544 9.723761,33.883999 11.467173,33.880531 
	C24.286240,33.855042 37.109062,34.041931 49.922520,33.772575 
	C54.462166,33.677143 57.801849,34.935669 60.863335,38.302170 
	C63.822773,41.556458 67.300629,46.349625 70.757790,46.531490 
	C73.748795,46.688835 77.288940,41.552719 80.112648,38.340111 
	C83.111870,34.927807 86.408516,33.574638 90.985336,33.765614 
	C99.461182,34.119278 107.964142,33.969639 116.451904,33.815151 
	C119.621742,33.757458 121.094826,34.730385 120.905014,38.063457 
	C120.727699,41.177013 120.867096,44.308601 120.867096,48.001263 
	C110.934669,48.001263 101.483261,48.316734 92.066917,47.878620 
	C86.730667,47.630341 82.802872,49.132565 79.468971,53.218880 
	C77.270638,55.913330 74.567444,58.195866 71.792252,60.881016 
z"/>
<path fill="#5A93D3" opacity="1.000000" stroke="none" 
	d="
M106.162933,4.998117 
	C108.135315,4.998117 109.634010,4.965800 111.130966,5.003289 
	C122.020729,5.276004 120.699738,2.653238 120.921822,15.293751 
	C120.978134,18.499111 119.608223,19.289885 116.735146,19.175352 
	C112.747116,19.016373 108.732971,19.352289 104.757797,19.076202 
	C100.719101,18.795704 97.758545,20.211010 95.187752,23.254637 
	C92.199478,26.792517 88.916924,30.081821 85.256042,34.023926 
	C81.149612,29.923691 77.524132,26.572086 74.226318,22.924246 
	C71.678253,20.105728 68.848915,19.023527 65.026184,19.060747 
	C47.386024,19.232515 29.743259,19.136515 12.101427,19.136505 
	C10.313567,19.136505 8.525707,19.136507 6.435923,19.136507 
	C6.435923,14.358877 6.435923,10.100857 6.435923,5.231261 
	C7.954498,5.155676 9.536628,5.009836 11.118885,5.008430 
	C29.260000,4.992314 47.401920,5.086244 65.541611,4.924255 
	C69.194748,4.891632 71.868774,5.978484 74.296753,8.630044 
	C77.543182,12.175413 81.073059,15.461232 85.896729,20.269501 
	C88.834076,16.698275 91.760880,13.332994 94.466133,9.798157 
	C97.347832,6.032766 100.928467,4.217143 106.162933,4.998117 
z"/>
<path fill="#3F48CC" opacity="1.000000" stroke="none" 
	d="
M147.239624,87.001282 
	C248.999771,87.001282 350.287415,87.001266 451.575073,87.001411 
	C452.907806,87.001411 454.368713,86.660095 455.538757,87.096939 
	C456.817383,87.574310 457.826904,88.772453 458.953735,89.656433 
	C457.888794,90.435791 456.911865,91.422134 455.729309,91.924797 
	C454.882202,92.284866 453.759857,91.998558 452.760315,91.998558 
	C350.972900,91.998734 249.185471,91.998718 147.398041,91.998703 
	C146.731674,91.998703 145.949646,92.225159 145.420898,91.955353 
	C143.908401,91.183586 142.498749,90.210312 141.048645,89.316277 
	C142.455063,88.544746 143.839066,87.726700 145.282257,87.031494 
	C145.687927,86.836075 146.267380,87.001427 147.239624,87.001282 
z"/>
<path fill="#F7B93C" opacity="1.000000" stroke="none" 
	d="
M155.001541,61.883717 
	C152.691452,61.884380 150.766098,61.532688 149.059647,61.992840 
	C147.587708,62.389767 145.423660,63.516350 145.188293,64.655602 
	C143.881287,70.981941 139.634033,69.936356 134.518356,69.208122 
	C136.034622,65.023369 137.432968,61.192326 138.811371,57.354115 
	C142.067291,48.287945 145.198349,39.173508 148.687653,30.198227 
	C149.214890,28.842077 151.418610,27.258760 152.802368,27.299297 
	C155.598450,27.381205 159.325729,25.265285 161.022278,29.609119 
	C166.089005,42.581886 171.177994,55.545963 176.257996,68.512741 
	C169.685150,71.055176 167.911743,70.265053 165.221619,64.831566 
	C164.552246,63.479557 162.541321,62.451344 160.941254,61.993668 
	C159.249222,61.509689 157.311630,61.884243 155.001541,61.883717 
M152.497803,42.074951 
	C151.088013,46.423584 149.678207,50.772217 148.171249,55.420509 
	C152.981262,55.420509 157.194839,55.420509 162.039719,55.420509 
	C159.698563,48.774113 157.516693,42.579941 154.935852,35.253155 
	C154.037292,37.615055 153.668411,38.531063 153.341843,39.461906 
	C153.122955,40.085823 152.964066,40.730785 152.497803,42.074951 
z"/>
<path fill="#F7B93C" opacity="1.000000" stroke="none" 
	d="
M385.838440,32.113953 
	C394.465515,39.747444 394.282684,54.577549 388.524994,62.132927 
	C382.876007,69.545662 370.309052,72.486824 360.746887,68.470627 
	C352.795319,65.130898 348.609467,58.460220 348.619751,48.729942 
	C351.152954,48.729942 353.686554,48.729942 356.199646,48.729942 
	C359.313324,60.185913 363.479187,63.448776 373.354034,62.225368 
	C379.687805,61.440678 383.969849,56.339870 384.170258,49.340893 
	C384.424133,40.477406 380.637085,36.184475 370.614502,34.354168 
	C370.614502,32.060677 370.614502,29.694208 370.614502,27.132284 
	C376.447357,26.567802 381.225952,28.502506 385.838440,32.113953 
z"/>
<path fill="#F7B93C" opacity="1.000000" stroke="none" 
	d="
M305.495453,41.483444 
	C308.848358,46.270836 311.988098,50.767353 315.900024,56.369766 
	C315.900024,46.071388 315.900024,36.941059 315.900024,27.473042 
	C318.768402,27.473042 321.009491,27.473042 323.636658,27.473042 
	C323.636658,41.295135 323.636658,55.170422 323.636658,69.190239 
	C318.971893,70.494171 315.671509,69.639542 312.782196,65.141373 
	C305.588440,53.941776 297.819519,43.111931 290.303467,32.118607 
	C289.403473,30.802231 288.639557,29.392826 287.573608,27.631704 
	C292.733673,26.396391 296.314117,26.995594 298.792938,31.729246 
	C300.554810,35.093792 303.091431,38.052643 305.495453,41.483444 
z"/>
<path fill="#F8BB43" opacity="1.000000" stroke="none" 
	d="
M417.740112,55.306740 
	C411.362762,45.998158 405.185486,36.989964 398.780823,27.650139 
	C404.263824,26.230328 407.615143,27.386576 410.483856,31.951609 
	C416.144501,40.959362 422.336823,49.644901 428.606781,58.246849 
	C429.734070,59.793434 432.263000,61.085293 434.190338,61.150703 
	C443.140747,61.454445 452.107208,61.285110 461.442627,61.285110 
	C461.442627,64.112015 461.442627,66.514763 461.442627,69.714493 
	C454.248749,69.714493 446.910431,69.043968 439.749023,69.883125 
	C430.665497,70.947487 424.393829,68.220947 420.700928,59.756336 
	C420.046844,58.257141 418.873657,56.984428 417.740112,55.306740 
z"/>
<path fill="#F7B93B" opacity="1.000000" stroke="none" 
	d="
M461.791809,31.935982 
	C461.995728,35.583488 459.698578,35.147381 457.738434,35.151119 
	C451.448730,35.163113 445.159027,35.155575 438.468750,35.155575 
	C438.468750,38.442410 438.468750,41.302975 438.468750,44.789490 
	C446.118774,44.789490 453.669403,44.789490 461.498810,44.789490 
	C461.498810,47.464455 461.498810,49.521328 461.498810,51.867508 
	C451.145172,51.867508 441.067535,51.867508 430.562622,51.867508 
	C430.562622,43.842094 430.562622,35.825073 430.562622,27.133343 
	C440.176025,27.133343 449.760620,27.021891 459.332214,27.322693 
	C460.195984,27.349836 460.976135,30.036404 461.791809,31.935982 
z"/>
<path fill="#F8BE4B" opacity="1.000000" stroke="none" 
	d="
M200.970795,69.744797 
	C194.202118,69.744598 187.928955,69.744598 181.312927,69.744598 
	C181.312927,66.901848 181.312927,64.505257 181.312927,61.673256 
	C191.258835,61.673256 201.256042,61.673256 211.617798,61.673256 
	C211.617798,64.104454 211.617798,66.502907 211.617798,69.745003 
	C208.271072,69.745003 204.868683,69.745003 200.970795,69.744797 
z"/>
<path fill="#F8BE4B" opacity="1.000000" stroke="none" 
	d="
M216.956757,63.257084 
	C217.393875,62.340866 217.798950,61.470516 218.210815,61.467289 
	C227.944214,61.390991 237.678314,61.408085 247.655212,61.408085 
	C247.655212,64.302010 247.655212,66.704422 247.655212,69.420639 
	C237.382431,69.420639 227.368988,69.420639 216.927902,69.420639 
	C216.927902,67.300186 216.927902,65.503548 216.956757,63.257084 
z"/>
<path fill="#F7B839" opacity="1.000000" stroke="none" 
	d="
M279.079041,48.050110 
	C279.079102,55.327488 279.079102,62.111256 279.079102,69.280060 
	C276.396088,69.280060 274.018677,69.280060 271.302734,69.280060 
	C271.302734,59.379402 271.302734,49.547291 271.302734,39.419346 
	C273.707672,39.419346 275.960419,39.419346 279.079010,39.419346 
	C279.079010,42.091980 279.079010,44.824238 279.079041,48.050110 
z"/>
<path fill="#F8BC44" opacity="1.000000" stroke="none" 
	d="
M290.438721,41.612785 
	C298.539764,49.841202 294.661530,59.704685 295.579102,69.294510 
	C292.686676,69.294510 290.312714,69.294510 287.563690,69.294510 
	C287.563690,59.203480 287.563690,49.133984 287.563690,38.453922 
	C288.604736,39.574913 289.417389,40.449974 290.438721,41.612785 
z"/>
<path fill="#F7B736" opacity="1.000000" stroke="none" 
	d="
M221.935364,56.999130 
	C220.174988,57.001457 218.881683,57.001457 217.277145,57.001457 
	C217.277145,46.974472 217.277145,37.321941 217.277145,27.401806 
	C219.760391,27.401806 222.011841,27.401806 225.004181,27.401806 
	C225.004181,36.762592 225.046051,46.115860 224.893143,55.465942 
	C224.884583,55.989662 223.269699,56.487118 221.935364,56.999130 
z"/>
<path fill="#F7B737" opacity="1.000000" stroke="none" 
	d="
M189.166046,53.798233 
	C188.369049,60.147842 183.911743,55.015656 181.374542,58.368732 
	C181.374542,47.097412 181.374542,37.438656 181.374542,27.454632 
	C183.809814,27.454632 186.181641,27.454632 189.168686,27.454632 
	C189.168686,36.204693 189.168686,44.761852 189.166046,53.798233 
z"/>
<path fill="#F7B93B" opacity="1.000000" stroke="none" 
	d="
M406.949860,65.709976 
	C406.888947,72.614037 402.277924,68.576248 399.348114,69.833893 
	C399.348114,59.273087 399.348114,49.226379 399.348114,38.026279 
	C402.697296,43.522934 407.660736,47.026104 407.015289,53.790745 
	C406.653961,57.577511 406.950256,61.427021 406.949860,65.709976 
z"/>
<path fill="#F8BB42" opacity="1.000000" stroke="none" 
	d="
M279.129242,30.946312 
	C277.753143,36.520599 274.081787,32.846462 271.231750,33.941780 
	C271.231750,31.485239 271.231750,29.586124 271.231750,27.136803 
	C274.111176,28.314104 278.568573,24.077101 279.129242,30.946312 
z"/>
<path fill="#FEF9EF" opacity="1.000000" stroke="none" 
	d="
M152.638062,41.720642 
	C152.964066,40.730785 153.122955,40.085823 153.341843,39.461906 
	C153.668411,38.531063 154.037292,37.615055 154.935852,35.253155 
	C157.516693,42.579941 159.698563,48.774113 162.039719,55.420509 
	C157.194839,55.420509 152.981262,55.420509 148.171249,55.420509 
	C149.678207,50.772217 151.088013,46.423584 152.638062,41.720642 
z"/>
</svg>